{"title":"Mousehunt[1997]BRrip[Ac3-5.1]-=[CaLvIn]=-","uid":7168761,"size":747986856,"categoryP":"video","categoryS":"movies","magnet":"?xt=urn:btih:02af1774c35ccdea8164e4d3a0a4539537e4ce94&amp;dn=Mousehunt%5B1997%5DBRrip%5BAc3-5.1%5D-%3D%5BCaLvIn%5D%3D-&amp;tr=udp%3A%2F%2Ftracker.openbittorrent.com%3A80&amp;tr=udp%3A%2F%2Fopen.demonii.com%3A1337&amp;tr=udp%3A%2F%2Ftracker.coppersurfer.tk%3A6969&amp;tr=udp%3A%2F%2Fexodus.desync.com%3A6969","seeders":0,"leechers":1,"uploader":"rhythmtheguru","files":15,"time":1333882819,"description":"General\nComplete name                    : Mousehunt[1997]BRrip[Ac3-5.1]-=[CaLvIn]=-\nImdb Link                        : http://www.imdb.com/title/tt0119715\nFormat                           : AVI\nFormat/Info                      : Audio Video Interleave\nFile size                        : 703 MiB\nDuration                         : 1h 35mn\nOverall bit rate                 : 1 030 Kbps\n\n\nVideo\nID                               : 0\nFormat                           : MPEG-4 Visual\nFormat profile                   : Advanced Simple@L5\nFormat settings, BVOP            : 2\nFormat settings, QPel            : No\nFormat settings, GMC             : No warppoints\nFormat settings, Matrix          : Default (H.263)\nCodec ID                         : XVID\nCodec ID/Hint                    : XviD\nDuration                         : 1h 35mn\nBit rate                         : 829 Kbps\nWidth                            : 720 pixels\nHeight                           : 400 pixels\nDisplay aspect ratio             : 16:9\nFrame rate                       : 23.976 fps\nColor space                      : YUV\nChroma subsampling               : 4:2:0\nBit depth                        : 8 bits\nScan type                        : Progressive\nCompression mode                 : Lossy\nBits/(Pixel*Frame)               : 0.120\nStream size                      : 565 MiB (80%)\nWriting library                  : XviD 1.2.1 (UTC 2008-12-04)\n\nAudio\nID                               : 1\nFormat                           : AC-3\nFormat/Info                      : Audio Coding 3\nMode extension                   : CM (complete main)\nCodec ID                         : 2000\nDuration                         : 1h 35mn\nBit rate mode                    : Constant\nBit rate                         : 192 Kbps\nChannel(s)                       : 6 channels\nChannel positions                : Front: L C R, Side: L R, LFE\nSampling rate                    : 48.0 KHz\nBit depth                        : 16 bits\nCompression mode                 : Lossy\nStream size                      : 131 MiB (19%)\nAlignment                        : Split accross interleaves\nInterleave, duration             : 42 ms (1.00 video frame)\nInterleave, preload duration     : 500 ms\n\nScreens\n &lt;a href=&quot;\nhttp://img641.imageshack.us/img641/7646/80132875.png&quot; rel=&quot;nofollow&quot; target=&quot;_NEW&quot;&gt;\nhttp://img641.imageshack.us/img641/7646/80132875.png&lt;/a&gt; &lt;a href=&quot;\nhttp://img194.imageshack.us/img194/6396/37966138.png&quot; rel=&quot;nofollow&quot; target=&quot;_NEW&quot;&gt;\nhttp://img194.imageshack.us/img194/6396/37966138.png&lt;/a&gt; &lt;a href=&quot;\nhttp://img198.imageshack.us/img198/1693/27595442.png&quot; rel=&quot;nofollow&quot; target=&quot;_NEW&quot;&gt;\nhttp://img198.imageshack.us/img198/1693/27595442.png&lt;/a&gt; &lt;a href=&quot;\nhttp://img195.imageshack.us/img195/5085/66367876.png&quot; rel=&quot;nofollow&quot; target=&quot;_NEW&quot;&gt;\nhttp://img195.imageshack.us/img195/5085/66367876.png&lt;/a&gt; &lt;a href=&quot;\nhttp://img710.imageshack.us/img710/3913/61277553.png&quot; rel=&quot;nofollow&quot; target=&quot;_NEW&quot;&gt;\nhttp://img710.imageshack.us/img710/3913/61277553.png&lt;/a&gt; &lt;a href=&quot;\nhttp://img716.imageshack.us/img716/3500/40849557.png&quot; rel=&quot;nofollow&quot; target=&quot;_NEW&quot;&gt;\nhttp://img716.imageshack.us/img716/3500/40849557.png&lt;/a&gt; &lt;a href=&quot;\nhttp://img198.imageshack.us/img198/6793/17177245.png&quot; rel=&quot;nofollow&quot; target=&quot;_NEW&quot;&gt;\nhttp://img198.imageshack.us/img198/6793/17177245.png&lt;/a&gt; &lt;a href=&quot;\nhttp://img593.imageshack.us/img593/2622/78522015.png&quot; rel=&quot;nofollow&quot; target=&quot;_NEW&quot;&gt;\nhttp://img593.imageshack.us/img593/2622/78522015.png&lt;/a&gt; &lt;a href=&quot;\nhttp://img252.imageshack.us/img252/4782/94965929.png&quot; rel=&quot;nofollow&quot; target=&quot;_NEW&quot;&gt;\nhttp://img252.imageshack.us/img252/4782/94965929.png&lt;/a&gt; &lt;a href=&quot;\nhttp://img823.imageshack.us/img823/2396/53864592.png&quot; rel=&quot;nofollow&quot; target=&quot;_NEW&quot;&gt;\nhttp://img823.imageshack.us/img823/2396/53864592.png&lt;/a&gt;","torrent":{"xt":"urn:btih:02af1774c35ccdea8164e4d3a0a4539537e4ce94","amp;dn":"Mousehunt%5B1997%5DBRrip%5BAc3-5.1%5D-%3D%5BCaLvIn%5D%3D-","amp;tr":["udp%3A%2F%2Ftracker.openbittorrent.com%3A80","udp%3A%2F%2Fopen.demonii.com%3A1337","udp%3A%2F%2Ftracker.coppersurfer.tk%3A6969","udp%3A%2F%2Fexodus.desync.com%3A6969"],"infoHash":"02af1774c35ccdea8164e4d3a0a4539537e4ce94","infoHashBuffer":{"type":"Buffer","data":[2,175,23,116,195,92,205,234,129,100,228,211,160,164,83,149,55,228,206,148]},"announce":[],"urlList":[]}}